<svg width="20" height="25" viewBox="0 0 20 25" fill="none" xmlns="http://www.w3.org/2000/svg">
<path fill-rule="evenodd" clip-rule="evenodd" d="M19.812 7.74292L18.2323 8.05187L17.9451 9.24529L19.8104 8.91187L19.8088 10.0627L17.6469 10.4855L17.3603 11.6771L19.8075 11.2358L19.8059 12.3795L17.0624 12.9161L16.7771 14.1027L19.8045 13.5566L19.7931 22.0779L19.0413 23.0748L19.0397 24.5061L13.88 24.4595L13.7336 22.9361L12.8715 22.0758L12.0819 11.0177L11.0843 10.79L7.34481 21.2034L6.26401 21.8716L5.68801 23.3848L1.05308 22.2753L1.52214 20.4308L0.961609 19.2369L5.36268 3.0395L6.66881 2.11713L7.18268 0.508972L18.8573 2.02239L18.8552 3.53792L19.8157 4.74213L19.812 7.74292ZM10.5195 2.39371L9.32481 8.03055L10.4019 8.23397L11.6707 2.77029L10.5195 2.39371ZM13.584 2.88713L13.1907 8.7466L14.3011 8.83423L14.7861 3.04818L13.584 2.88713Z" fill="#545C60"/>
</svg>
