<svg width="30" height="17" viewBox="0 0 30 17" fill="none" xmlns="http://www.w3.org/2000/svg">
<path fill-rule="evenodd" clip-rule="evenodd" d="M26.4843 16.6869C24.2853 16.6869 1.52294 16.6266 1.52294 16.6266V14.3055L29.3928 13.8524C29.3928 13.8524 29.7541 16.6869 26.4843 16.6869ZM1.6744 12.31C-0.457865 9.38739 1.61547 3.3087 2.6224 3.3087C3.62934 3.3087 4.69734 5.01949 6.77147 4.97449C7.5328 4.95791 8.48027 4.38397 9.69813 3.79212C9.09867 1.70318 10.9043 0.302124 10.9043 0.302124L13.8392 2.53002C14.1195 2.50449 14.4075 2.49055 14.7048 2.49055C14.7048 2.49055 15.4851 3.03923 16.6741 3.8266L14.7632 5.29502L15.7299 6.36739L18.3704 4.92818C18.7787 5.18791 19.2075 5.45634 19.6469 5.72634L17.6531 7.14318L18.6197 8.18897L21.3213 6.72554C21.7952 6.99976 22.2712 7.2666 22.74 7.51923L20.6661 8.89134L21.6536 9.92686L24.6552 8.4787C25.5939 8.90634 26.4376 9.21397 27.0939 9.3237C29.5037 9.72634 29.4005 12.69 29.4005 12.69C29.4005 12.69 4.22187 12.31 1.6744 12.31ZM12.048 6.31528L11.5656 6.58818C12.5027 9.94265 10.9072 9.63634 3.3928 7.11739L3.19494 7.45397C15.6464 14.1082 14.7843 9.14555 12.048 6.31528Z" fill="#545C60"/>
</svg>
